<svg width="470" height="154" viewBox="0 0 470 154" fill="none" xmlns="http://www.w3.org/2000/svg">
<g clip-path="url(#clip0_63_24)">
<path d="M202.85 15.4L212.3 40.04H212.74L222.14 15.4H235.06V57.82H224.92V32.86H224.59L215.63 57.5H209.42L200.46 32.74H200.13V57.82H189.99V15.4H202.85Z" fill="#1B2E7A"/>
<path d="M273.37 15.4V42.65C273.37 45.79 272.67 48.54 271.26 50.9C269.85 53.25 267.86 55.08 265.29 56.38C262.72 57.68 259.75 58.33 256.39 58.33C253.03 58.33 250.08 57.68 247.54 56.38C245 55.08 243.02 53.26 241.61 50.9C240.2 48.55 239.5 45.8 239.5 42.65V15.4H249.85V41.68C249.85 43.01 250.13 44.2 250.69 45.27C251.25 46.33 252.03 47.17 253.03 47.77C254.03 48.37 255.15 48.68 256.38 48.68C257.61 48.68 258.81 48.38 259.81 47.77C260.81 47.16 261.58 46.33 262.13 45.27C262.68 44.21 262.95 43.01 262.95 41.68V15.4H273.36H273.37Z" fill="#1B2E7A"/>
<path d="M298.28 26.0301C297.86 25.3501 297.26 24.8301 296.47 24.4901C295.68 24.1501 294.68 23.9801 293.49 23.9801C292.4 23.9801 291.49 24.1301 290.75 24.4201C290.01 24.7101 289.46 25.1201 289.09 25.6401C288.72 26.1601 288.53 26.7501 288.53 27.4101C288.49 28.4801 288.91 29.3401 289.78 29.9901C290.65 30.6401 292.04 31.2001 293.95 31.6901L297.25 32.3901C301.45 33.3701 304.53 34.9301 306.5 37.0901C308.47 39.2501 309.47 42.0001 309.51 45.3401C309.51 48.0901 308.87 50.4301 307.59 52.3601C306.31 54.2801 304.48 55.7601 302.11 56.7801C299.74 57.8001 296.89 58.3201 293.57 58.3201C290.25 58.3201 287.16 57.7601 284.63 56.6501C282.1 55.5401 280.16 53.8501 278.8 51.6001C277.44 49.3501 276.73 46.5201 276.68 43.1201H286.6C286.67 44.4101 286.99 45.5101 287.55 46.4201C288.11 47.3301 288.89 48.0101 289.89 48.4701C290.89 48.9301 292.07 49.1601 293.43 49.1601C294.59 49.1601 295.58 48.9901 296.4 48.6601C297.22 48.3301 297.84 47.8801 298.27 47.3101C298.7 46.7401 298.91 46.0901 298.91 45.3501C298.91 44.6501 298.71 44.0401 298.31 43.5301C297.91 43.0201 297.27 42.5701 296.38 42.1701C295.49 41.7701 294.32 41.4001 292.87 41.0701L288.89 40.1001C285.28 39.2801 282.51 37.9001 280.59 35.9501C278.67 34.0101 277.71 31.4201 277.71 28.2001C277.71 25.5601 278.38 23.2301 279.73 21.2101C281.07 19.1901 282.94 17.6201 285.33 16.4901C287.72 15.3601 290.45 14.8101 293.52 14.8101C296.59 14.8101 299.36 15.3701 301.68 16.4901C304 17.6101 305.79 19.2101 307.06 21.2801C308.33 23.3501 308.97 25.7501 308.97 28.4901H299.02C298.95 27.5301 298.7 26.7101 298.28 26.0301Z" fill="#1B2E7A"/>
<path d="M311.69 15.4H345.72V24.39H333.81V57.82H323.62V24.39H311.69V15.4Z" fill="#1B2E7A"/>
<path d="M214.99 97.64C214.42 96.64 213.61 95.88 212.58 95.34C211.55 94.8 210.35 94.53 208.98 94.53C207.16 94.53 205.62 95.01 204.35 95.97C203.08 96.93 202.1 98.31 201.42 100.12C200.74 101.93 200.4 104.09 200.4 106.61C200.4 109.13 200.74 111.45 201.42 113.23C202.1 115.01 203.08 116.36 204.35 117.29C205.62 118.22 207.13 118.68 208.87 118.68C210.21 118.68 211.38 118.43 212.37 117.93C213.36 117.43 214.16 116.73 214.77 115.82C215.38 114.91 215.78 113.83 215.98 112.58L226.52 112.7C226.32 115.26 225.5 117.74 224.07 120.14C222.64 122.54 220.61 124.52 217.98 126.07C215.35 127.62 212.25 128.4 208.68 128.4C205.11 128.4 201.8 127.55 198.93 125.85C196.06 124.15 193.81 121.66 192.19 118.36C190.57 115.06 189.75 111.15 189.75 106.6C189.75 102.05 190.58 98.07 192.24 94.79C193.9 91.51 196.16 89.02 199.01 87.33C201.86 85.64 205.09 84.8 208.68 84.8C211.97 84.8 214.9 85.44 217.48 86.72C220.06 88 222.14 89.87 223.72 92.33C225.3 94.79 226.24 97.72 226.53 101.12H215.99C215.9 99.79 215.57 98.63 214.99 97.63V97.64Z" fill="#1B2E7A"/>
<path d="M266.06 118.37C264.4 121.66 262.12 124.16 259.22 125.86C256.32 127.56 253.07 128.41 249.45 128.41C245.83 128.41 242.58 127.56 239.7 125.86C236.81 124.16 234.54 121.66 232.87 118.36C231.2 115.06 230.38 111.14 230.38 106.61C230.38 102.08 231.21 98.0801 232.87 94.8001C234.53 91.5201 236.81 89.0301 239.7 87.3401C242.59 85.6501 245.84 84.8101 249.45 84.8101C253.06 84.8101 256.32 85.6501 259.22 87.3401C262.12 89.0301 264.4 91.5101 266.06 94.8001C267.72 98.0901 268.55 102.02 268.55 106.61C268.55 111.2 267.72 115.08 266.06 118.37ZM256.93 100.02C256.28 98.2201 255.33 96.8601 254.07 95.9301C252.81 95.0001 251.27 94.5401 249.45 94.5401C247.63 94.5401 246.1 95.0001 244.85 95.9301C243.6 96.8601 242.65 98.2201 242 100.02C241.35 101.82 241.03 104.01 241.03 106.61C241.03 109.21 241.35 111.4 242 113.2C242.65 115 243.59 116.36 244.85 117.29C246.11 118.22 247.64 118.68 249.45 118.68C251.26 118.68 252.81 118.22 254.07 117.29C255.33 116.36 256.29 115 256.93 113.2C257.57 111.4 257.9 109.21 257.9 106.61C257.9 104.01 257.58 101.82 256.93 100.02Z" fill="#1B2E7A"/>
<path d="M285.61 85.4001L295.06 110.04H295.5L304.9 85.4001H317.82V127.82H307.68V102.86H307.35L298.39 127.5H292.18L283.22 102.74H282.89V127.82H272.75V85.4001H285.61Z" fill="#1B2E7A"/>
<path d="M322.26 85.4001H339.04C341.95 85.4001 344.5 86.0201 346.71 87.2501C348.92 88.4801 350.62 90.2301 351.83 92.4901C353.04 94.7601 353.64 97.3601 353.64 100.31C353.64 103.26 353.02 105.9 351.77 108.12C350.52 110.34 348.78 112.05 346.52 113.26C344.26 114.47 341.65 115.08 338.67 115.08H328.51V106.35H336.66C337.95 106.35 339.06 106.11 339.98 105.62C340.9 105.13 341.61 104.44 342.09 103.54C342.57 102.64 342.81 101.57 342.81 100.32C342.81 99.0701 342.57 98.0001 342.09 97.1001C341.61 96.2001 340.91 95.5201 339.99 95.0501C339.07 94.5801 337.96 94.3501 336.65 94.3501H332.59V127.84H322.24V85.4201L322.26 85.4001Z" fill="#1B2E7A"/>
<path d="M350.52 127.82L363.63 85.4001H377.72L390.83 127.82H379.63L370.86 96.7901H370.53L361.73 127.82H350.53H350.52ZM381.42 111.06V119.47H359.76V111.06H381.42Z" fill="#1B2E7A"/>
<path d="M427.77 127.82H419.08L404.45 104.94H404.18V127.82H393.83V85.4001H402.69L417.1 108.22H417.43V85.4001H427.78V127.82H427.77Z" fill="#1B2E7A"/>
<path d="M442.06 85.4001L449.96 102.77H450.26L458.16 85.4001H469.74L455.27 114.23V127.82H444.97V114.23L430.48 85.4001H442.06Z" fill="#1B2E7A"/>
<path d="M136.26 39.41L111.45 25.16L93.33 25.21L93.28 14.35L68.11 0L0 39.42V64.62L20.74 76.61L0 88.56V113.87L68.13 153.3L136.26 113.87V88.68L114.58 76.17L136.2 63.63L136.25 39.41H136.26Z" fill="#1B2E7A"/>
<path d="M68.1299 54.33L68.1799 54.3L68.1299 54.27V54.33Z" fill="#201D1D"/>
<path d="M68.16 104.05L46.95 91.76V66.59L25.39 79.06L4.48999 91.16L25.33 103.61L46.37 115.79L68.13 128.09L89.12 115.95L110.68 103.47L131.78 91.26V91.25L110.32 78.78L89.17 91.02L68.16 104.05Z" fill="white"/>
<path d="M47.19 42.1001L63.16 32.7401V45.8201L82.68 45.7701L68.13 54.2701L46.95 66.59L68.13 78.84L89.32 66.5801L110.7 54.2101L131.78 42.0101L110.21 29.6301L88.65 29.5901L88.68 16.9001L68.13 5.18005L47.06 17.3801L25.81 29.6801L4.48999 42.0101L25.91 54.4101L47.19 42.1001Z" fill="white"/>
</g>
<defs>
<clipPath id="clip0_63_24">
<rect width="469.74" height="153.3" fill="white"/>
</clipPath>
</defs>
</svg>
